<svg width="42" height="40" viewBox="0 0 42 40" fill="none" xmlns="http://www.w3.org/2000/svg">
<path d="M13.9306 38.1635H26.1142V40H13.9306V38.1635Z" fill="#F9FF01"/>
<path d="M3.44905 27.8164H38.2531V31.3102H3.44905V27.8164Z" fill="#FFFF6F"/>
<path d="M6.98768 32.9227H34.804V34.804H33.0571V36.5062H8.757V34.804H6.98768V32.9227Z" fill="#FFFF6F"/>
<path d="M0 22.3964H41.7021V24.2777H39.9552V25.9798H1.76932V24.2777H0V22.3964Z" fill="#F9FF01"/>
<path d="M1.74692 13.9306H39.9552V12.0493H38.2083V8.55543H3.51624V12.0493H1.74692V13.9306Z" fill="#FF9700"/>
<path d="M12.1837 3.26988H29.7872V1.70213H26.2486V0H15.6103V1.70213H12.1837V3.26988Z" fill="#FF6702"/>
<path d="M5.19597 8.55543H36.4614V6.67413H34.7144V4.972H33.0179V3.26988H8.70661V4.972H6.96529V6.67413H5.19597V8.55543Z" fill="#FF7300"/>
<path d="M0 20.8735H41.7021V15.6327H39.9552V13.9306H1.76932V15.6327H0V20.8735Z" fill="#FEC200"/>
</svg>
