<svg width="16" height="16" viewBox="0 0 16 16" fill="none" xmlns="http://www.w3.org/2000/svg">
<path d="M14.6216 6.62004H9.38308V1.38152C9.38308 0.618871 8.76421 0 8.00156 0C7.23891 0 6.62004 0.618871 6.62004 1.38152V6.61692H1.38152C0.618871 6.62004 0 7.23891 0 8.00156C0 8.76421 0.618871 9.38308 1.38152 9.38308H6.61692V14.6185C6.61692 15.3811 7.23579 16 8.00156 16C8.76421 16 9.38308 15.3811 9.38308 14.6185V9.38308H14.6185C15.3811 9.38308 16 8.76421 16 8.00156C16 7.23891 15.3843 6.62004 14.6216 6.62004Z" fill="#FFB800"/>
</svg>
