<svg width="20" height="18" viewBox="0 0 20 18" fill="none" xmlns="http://www.w3.org/2000/svg">
<path d="M13.3333 13.4448C10.8778 13.4448 8.88889 11.4559 8.88889 9.00033C8.88889 6.54477 10.8778 4.55588 13.3333 4.55588H18.3333C18.5222 4.55588 18.7111 4.5781 18.8889 4.61144V3.44477C18.8889 1.91144 17.6444 0.666992 16.1111 0.666992H2.77778C1.24444 0.666992 0 1.91144 0 3.44477V14.5559C0 16.0892 1.24444 17.3337 2.77778 17.3337H16.1111C17.6444 17.3337 18.8889 16.0892 18.8889 14.5559V13.3892C18.7111 13.4225 18.5222 13.4448 18.3333 13.4448H13.3333Z" fill="black"/>
<path d="M18.3333 5.66699H13.3333C11.5 5.66699 10 7.16699 10 9.00033C10 10.8337 11.5 12.3337 13.3333 12.3337H18.3333C19.2556 12.3337 20 11.5892 20 10.667V7.33366C20 6.41144 19.2556 5.66699 18.3333 5.66699ZM14.4444 9.55588H13.3333C13.0222 9.55588 12.7778 9.31144 12.7778 9.00033C12.7778 8.68921 13.0222 8.44477 13.3333 8.44477H14.4444C14.7556 8.44477 15 8.68921 15 9.00033C15 9.31144 14.7556 9.55588 14.4444 9.55588Z" fill="black"/>
</svg>
